<svg id="Layer_4" data-name="Layer 4" xmlns="http://www.w3.org/2000/svg" viewBox="0 0 68.74 41.9"><defs><style>.cls-1{fill:#af4325;}.cls-2{fill:#e0e0e0;}.cls-3{fill:#a20808;}.cls-4{fill:#d15d36;}</style></defs><path d="M2408.49,43.28c3.48,1.5,7,3.61,10.65,4.56,14.78,3.57,30.61,3.37,45.5.51,4.65-.82,8.33-3.12,12.58-5.07-6.6,7.57-15.95,17.41-17.77,27.5-6.2,3.3-11.48,6.71-18.86,5.82-7.4-.15-11.41-4.83-16.22-9.7C2421.21,57.33,2414.78,50.81,2408.49,43.28Z" transform="translate(-2408.49 -43.28)"/><path class="cls-1" d="M2464.64,48.35c-14.89,2.86-30.72,3.06-45.5-.51C2433.28,43.9,2451,41.88,2464.64,48.35Z" transform="translate(-2408.49 -43.28)"/><path class="cls-2" d="M2423.4,51.76a212.62,212.62,0,0,0,38.18.09c-3.06,2.53-5.54,5-9.73,5.28C2442,57.7,2431.11,59.43,2423.4,51.76Z" transform="translate(-2408.49 -43.28)"/><path class="cls-3" d="M2438.91,64.06c3.39-.73,17.88,0,16.55,5.39-5.25,5.11-12.54,5.62-19.32,3.83-2.61-1.6-7.51-2.59-5.67-6.56A32.16,32.16,0,0,1,2438.91,64.06Z" transform="translate(-2408.49 -43.28)"/><path class="cls-4" d="M2424.37,66.9c4.81,4.87,8.82,9.55,16.22,9.7,7.38.89,12.66-2.52,18.86-5.82l-.13,3.5c-1.22,2.92-2.55,7.26-5.76,8.64-6.38,2.9-14.89,3.08-21.25.11C2426.37,79.48,2425.11,73.28,2424.37,66.9Z" transform="translate(-2408.49 -43.28)"/></svg>