<svg id="Layer_4" data-name="Layer 4" xmlns="http://www.w3.org/2000/svg" viewBox="81.97 0.04 34.7 51.57"><defs><style>.cls-1{fill:#fff;}.cls-2{fill:#5f2e07;}</style></defs><path d="M2583-368c8.06-2.17,16.57,3,18.92,10.91,3.72,11,3.72,25.68-3.54,35.34-5.46,6.85-17,6.16-22.3-.51-6.53-7.36-7.11-19-5.89-28.3C2571.66-357.47,2576.41-365.09,2583-368Z" transform="translate(-2487.71 368.54)"/><path class="cls-1" d="M2579.86-362c3.46.35,6.94.84,10.37,1.46-.44,3.21.51,8.4-2,10.79-3.5,1.84-8.11,2.55-10.72-1.11C2575.52-355.5,2577.38-358.22,2579.86-362Z" transform="translate(-2487.71 368.54)"/><path class="cls-2" d="M2577.27-338.3c3.08,2.84,6.12,8.27,10.61,8.53,4.86,1.07,7.92-4.3,11.39-6.82,3.11,8.48-3.81,16.39-12.34,16.42C2578.64-319.4,2571.53-331.87,2577.27-338.3Z" transform="translate(-2487.71 368.54)"/></svg>
